<?xml version="1.0" encoding="UTF-8"?>
<svg xmlns="http://www.w3.org/2000/svg" version="1.1" viewBox="0 0 600 666.7">
  <defs>
    <style>
      .cls-1 {
        fill: #eee;
      }
    </style>
  </defs>
  <!-- Generator: Adobe Illustrator 28.6.0, SVG Export Plug-In . SVG Version: 1.2.0 Build 709)  -->
  <g>
    <g id="Ebene_1">
      <g id="Ebene_1-2" data-name="Ebene_1">
        <g id="Interface__x2F__Trash_x5F_Full">
          <g id="Vector">
            <path class="cls-1" d="M393.4,666.7h-186.9c-41.2,0-63.9,0-85.3-10.9-18.9-9.6-34-24.8-43.7-43.7-10.9-21.4-10.9-44.1-10.9-85.4V166.7h-33.3c-18.4,0-33.3-14.9-33.3-33.3s14.9-33.3,33.3-33.3h100.4c.7-15.3,2.5-26.9,7.2-38.3,10.2-24.7,29.4-43.9,54.1-54.1C213.4,0,232.3,0,266.7,0h66.7c34.3,0,53.2,0,71.6,7.6,24.7,10.2,43.9,29.4,54.1,54.1,4.7,11.4,6.5,23,7.2,38.3h100.4c18.4,0,33.3,14.9,33.3,33.3s-14.9,33.3-33.3,33.3h-33.3v360.1c0,41.2,0,63.9-10.9,85.3-9.7,18.9-24.8,34.1-43.7,43.7-21.4,10.9-44.1,10.9-85.3,10.9h-.1ZM133.3,166.7v360c0,28.9,0,48,3.6,55.1,3.2,6.3,8.3,11.4,14.6,14.6,7.1,3.6,26.2,3.6,55,3.6h186.9c28.8,0,47.9,0,55-3.6,6.2-3.2,11.4-8.4,14.6-14.6,3.6-7.1,3.6-26.2,3.6-55V166.7H133.3ZM200.5,100h199c-.4-5.9-1-10.2-2-12.8-3.4-8.1-9.9-14.7-18-18-6.1-2.5-22-2.5-46.1-2.5h-66.7c-24.1,0-40,0-46.1,2.5-8.2,3.4-14.6,9.8-18,18-1.1,2.6-1.7,6.9-2,12.7h-.1ZM366.7,533.3c-18.4,0-33.3-14.9-33.3-33.3v-233.3c0-18.4,14.9-33.3,33.3-33.3s33.3,14.9,33.3,33.3v233.3c0,18.4-14.9,33.3-33.3,33.3ZM233.3,533.3c-18.4,0-33.3-14.9-33.3-33.3v-233.3c0-18.4,14.9-33.3,33.3-33.3s33.3,14.9,33.3,33.3v233.3c0,18.4-14.9,33.3-33.3,33.3Z"/>
          </g>
        </g>
      </g>
    </g>
  </g>
</svg>