<?xml version="1.0" encoding="UTF-8"?>
<svg xmlns="http://www.w3.org/2000/svg" version="1.1" viewBox="0 0 38 38">
  <defs>
    <style>
      .cls-1 {
        fill: #eee;
      }
    </style>
  </defs>
  <!-- Generator: Adobe Illustrator 28.6.0, SVG Export Plug-In . SVG Version: 1.2.0 Build 709)  -->
  <g>
    <g id="Ebene_1">
      <g id="Ebene_1-2" data-name="Ebene_1">
        <path class="cls-1" d="M11.5,0C5.2,0,0,5.2,0,11.5v15c0,6.3,5.2,11.5,11.5,11.5h15c6.3,0,11.5-5.2,11.5-11.5v-15c0-6.3-5.2-11.5-11.5-11.5h-15ZM11.5,3h15c4.7,0,8.5,3.8,8.5,8.5v15c0,4.7-3.8,8.5-8.5,8.5h-15c-4.7,0-8.5-3.8-8.5-8.5v-15C3,6.8,6.8,3,11.5,3ZM29,7c-1.1,0-2,.9-2,2s.9,2,2,2,2-.9,2-2-.9-2-2-2ZM19,9c-5.5,0-10,4.5-10,10s4.5,10,10,10,10-4.5,10-10-4.5-10-10-10ZM19,12c3.9,0,7,3.1,7,7s-3.1,7-7,7-7-3.1-7-7,3.1-7,7-7Z"/>
      </g>
    </g>
  </g>
</svg>