<?xml version="1.0" encoding="UTF-8"?>
<svg xmlns="http://www.w3.org/2000/svg" version="1.1" viewBox="0 0 723 533.3">
  <defs>
    <style>
      .cls-1 {
        fill: #eee;
        fill-rule: evenodd;
      }
    </style>
  </defs>
  <!-- Generator: Adobe Illustrator 28.6.0, SVG Export Plug-In . SVG Version: 1.2.0 Build 709)  -->
  <g>
    <g id="Ebene_1">
      <path class="cls-1" d="M171.5,385.9c-50.8-43.6-87-93.5-104-119.2,17-25.8,53.3-75.6,104-119.2,52.4-45,117.1-80.8,190-80.8s137.5,35.7,190,80.8c50.8,43.6,87,93.5,104,119.2-17,25.8-53.3,75.6-104,119.2-52.4,45-117.1,80.8-190,80.8s-137.5-35.7-190-80.8ZM361.5,0c-95.1,0-174.8,46.5-233.4,96.9C69.2,147.4,28.4,204.6,10.3,232.3c-13.7,21-13.7,47.7,0,68.7,18.1,27.7,59,84.9,117.8,135.5,58.6,50.4,138.3,96.9,233.4,96.9s174.8-46.5,233.4-96.9c58.8-50.6,99.7-107.7,117.8-135.5,13.7-21,13.7-47.7,0-68.7-18.1-27.7-59-84.9-117.8-135.5C536.2,46.5,456.6,0,361.5,0ZM294.8,266.7c0-36.8,29.9-66.7,66.7-66.7s66.7,29.8,66.7,66.7-29.8,66.7-66.7,66.7-66.7-29.8-66.7-66.7ZM361.5,133.3c-73.6,0-133.3,59.7-133.3,133.3s59.7,133.3,133.3,133.3,133.3-59.7,133.3-133.3-59.7-133.3-133.3-133.3Z"/>
    </g>
  </g>
</svg>