<?xml version="1.0" encoding="UTF-8"?>
<svg xmlns="http://www.w3.org/2000/svg" version="1.1" viewBox="0 0 666.7 666.7">
  <defs>
    <style>
      .cls-1 {
        fill: #eee;
      }
    </style>
  </defs>
  <!-- Generator: Adobe Illustrator 28.6.0, SVG Export Plug-In . SVG Version: 1.2.0 Build 709)  -->
  <g>
    <g id="Ebene_1">
      <g id="Ebene_1-2" data-name="Ebene_1">
        <path class="cls-1" d="M550,666.7c-74.2,0-146.3-14.5-214.1-43.2-65.5-27.7-124.3-67.4-174.8-117.9-50.5-50.5-90.2-109.3-117.9-174.8C14.5,262.9,0,190.9,0,116.7s.5-27.2,1.5-40.7c1.2-17,2.1-29.4,9.8-42.6,6.5-11.3,17-21.1,28.8-26.8C53.8,0,66.4,0,85.4,0h93.9c15.9,0,26.4,0,37.9,4.4,10.2,3.9,19.3,10.3,26.4,18.5,8.1,9.3,11.7,19.2,17.1,34.1l38.9,106.9c6.3,17.3,10.4,28.7,9.5,42.6-.8,12.3-5,24.2-12.1,34.2-8.1,11.4-18.5,17.7-34.2,27.1l-19.1,11.5c33.5,60.5,83.3,110.2,143.7,143.7l11.5-19.1c9.4-15.7,15.7-26.1,27.1-34.2,10.1-7.1,21.9-11.3,34.2-12.1,13.9-.9,25.3,3.2,42.6,9.5l106.9,38.9c14.9,5.4,24.8,9,34.1,17.1,8.2,7.1,14.6,16.3,18.5,26.4,4.4,11.5,4.4,22,4.4,37.9v93.9c0,19,0,31.6-6.6,45.4-5.7,11.8-15.4,22.3-26.8,28.8-13.2,7.6-25.5,8.5-42.5,9.7-13.5,1-27.2,1.5-40.7,1.5h-.1ZM69.2,67c-.5,2.9-.9,8.7-1.3,13.9-.9,11.9-1.3,23.9-1.3,35.8,0,266.5,216.8,483.3,483.3,483.3s24-.4,35.8-1.3c5.2-.4,10.9-.8,13.9-1.3.3-3.4.3-10.1.3-16.2v-93.9c0-5.4,0-11-.2-13.9-2.6-1.2-7.8-3.1-12.9-4.9l-106.9-38.9c-6-2.2-12.2-4.4-15.4-5.3-1.9,2.7-5.3,8.3-8.6,13.8l-27.4,45.6c-8.7,14.5-26.9,20.2-42.3,13.2-47.6-21.6-90.6-51.4-127.9-88.7-37.2-37.2-67.1-80.3-88.7-127.9-7-15.4-1.3-33.6,13.2-42.4l45.6-27.4c5.5-3.3,11.1-6.7,13.8-8.6-.9-3.2-3.1-9.4-5.3-15.4l-38.9-106.9c-1.9-5.1-3.8-10.4-4.9-13-2.8-.2-8.4-.2-13.9-.2h-93.9c-6.1,0-12.8,0-16.2.3v.3ZM599.5,599h0ZM599.6,597.9h0ZM600.2,597.3h0ZM601,474.1h0ZM599.6,472.2h0ZM463,424h0ZM242.6,203.7h0ZM243.5,201.1h0ZM67.7,67.2h0ZM68.8,67h0ZM69.4,66.5h0Z"/>
      </g>
    </g>
  </g>
</svg>