<?xml version="1.0" encoding="UTF-8"?>
<svg xmlns="http://www.w3.org/2000/svg" version="1.1" viewBox="0 0 3946.9 3260">
  <defs>
    <style>
      .cls-1 {
        fill: none;
        stroke: #888;
        stroke-linecap: round;
      }
    </style>
  </defs>
  <!-- Generator: Adobe Illustrator 28.6.0, SVG Export Plug-In . SVG Version: 1.2.0 Build 709)  -->
  <g>
    <g id="Ebene_1">
      <g id="Wiederholungsraster_1">
        <path id="Pfad_1" class="cls-1" d="M.5,3259.5s57.4-710.9,642.8-814.2,348.2-528,287-749.9-49.7-451.5,244.9-650.5,390.3-386.4,367.3-596.9S1519.5-49.5,1940.4,7.9"/>
        <path id="Pfad_1-2" class="cls-1" d="M118.5,3259.5s57.4-710.9,642.8-814.2,348.2-528,287-749.9-49.7-451.5,244.9-650.5,390.3-386.4,367.3-596.9-23-497.4,397.9-440"/>
        <path id="Pfad_1-3" class="cls-1" d="M236.5,3259.5s57.4-710.9,642.8-814.2,348.2-528,287-749.9-49.7-451.5,244.9-650.5,390.3-386.4,367.3-596.9-23-497.4,397.9-440"/>
        <path id="Pfad_1-4" class="cls-1" d="M354.5,3259.5s57.4-710.9,642.8-814.2,348.2-528,287-749.9-49.7-451.5,244.9-650.5,390.3-386.4,367.3-596.9-23-497.4,397.9-440"/>
        <path id="Pfad_1-5" class="cls-1" d="M472.5,3259.5s57.4-710.9,642.8-814.2,348.2-528,287-749.9-49.7-451.5,244.9-650.5,390.3-386.4,367.3-596.9-23-497.4,397.9-440"/>
        <path id="Pfad_1-6" class="cls-1" d="M590.5,3259.5s57.4-710.9,642.8-814.2,348.2-528,287-749.9-49.7-451.5,244.9-650.5c294.6-199,390.3-386.4,367.3-596.9s-23-497.4,397.9-440"/>
        <path id="Pfad_1-7" class="cls-1" d="M708.5,3259.5s57.4-710.9,642.8-814.2,348.2-528,287-749.9-49.7-451.5,244.9-650.5c294.6-199,390.3-386.4,367.3-596.9s-23-497.4,397.9-440"/>
        <path id="Pfad_1-8" class="cls-1" d="M826.5,3259.5s57.4-710.9,642.8-814.2c585.4-103.3,348.2-528,287-749.9s-49.7-451.5,244.9-650.5c294.6-199,390.3-386.4,367.3-596.9s-23-497.4,397.9-440"/>
        <path id="Pfad_1-9" class="cls-1" d="M944.5,3259.5s57.4-710.9,642.8-814.2c585.4-103.3,348.2-528,287-749.9s-49.7-451.5,244.9-650.5c294.6-199,390.3-386.4,367.3-596.9s-23-497.4,397.9-440"/>
        <path id="Pfad_1-10" class="cls-1" d="M1062.5,3259.5s57.4-710.9,642.8-814.2c585.4-103.3,348.2-528,287-749.9-61.2-221.9-49.7-451.5,244.9-650.5,294.6-199,390.3-386.4,367.3-596.9s-23-497.4,397.9-440"/>
        <path id="Pfad_1-11" class="cls-1" d="M1180.5,3259.5s57.4-710.9,642.8-814.2c585.4-103.3,348.2-528,287-749.9s-49.7-451.5,244.9-650.5,390.3-386.4,367.3-596.9-23-497.4,397.9-440"/>
        <path id="Pfad_1-12" class="cls-1" d="M1298.5,3259.5s57.4-710.9,642.8-814.2c585.4-103.3,348.2-528,287-749.9s-49.7-451.5,244.9-650.5,390.3-386.4,367.3-596.9-23-497.4,397.9-440"/>
        <path id="Pfad_1-13" class="cls-1" d="M1416.5,3259.5s57.4-710.9,642.8-814.2c585.4-103.3,348.2-528,287-749.9s-49.7-451.5,244.9-650.5,390.3-386.4,367.3-596.9-23-497.4,397.9-440"/>
        <path id="Pfad_1-14" class="cls-1" d="M1534.5,3259.5s57.4-710.9,642.8-814.2c585.4-103.3,348.2-528,287-749.9s-49.7-451.5,244.9-650.5,390.3-386.4,367.3-596.9-23-497.4,397.9-440"/>
        <path id="Pfad_1-15" class="cls-1" d="M1652.5,3259.5s57.4-710.9,642.8-814.2c585.4-103.3,348.2-528,287-749.9s-49.7-451.5,244.9-650.5,390.3-386.4,367.3-596.9-23-497.4,397.9-440"/>
        <path id="Pfad_1-16" class="cls-1" d="M1770.5,3259.5s57.4-710.9,642.8-814.2c585.4-103.3,348.2-528,287-749.9s-49.7-451.5,244.9-650.5,390.3-386.4,367.3-596.9-23-497.4,397.9-440"/>
        <path id="Pfad_1-17" class="cls-1" d="M1888.5,3259.5s57.4-710.9,642.8-814.2c585.4-103.3,348.2-528,287-749.9s-49.7-451.5,244.9-650.5,390.3-386.4,367.3-596.9-23-497.4,397.9-440"/>
        <path id="Pfad_1-18" class="cls-1" d="M2006.5,3259.5s57.4-710.9,642.8-814.2,348.2-528,287-749.9-49.7-451.5,244.9-650.5,390.3-386.4,367.3-596.9-23-497.4,397.9-440"/>
      </g>
    </g>
  </g>
</svg>