<?xml version="1.0" encoding="UTF-8"?>
<svg xmlns="http://www.w3.org/2000/svg" version="1.1" viewBox="0 0 733.3 600">
  <defs>
    <style>
      .cls-1 {
        fill: #eee;
        fill-rule: evenodd;
      }
    </style>
  </defs>
  <!-- Generator: Adobe Illustrator 28.6.0, SVG Export Plug-In . SVG Version: 1.2.0 Build 709)  -->
  <g>
    <g id="Ebene_1">
      <g id="Ebene_1-2" data-name="Ebene_1">
        <path class="cls-1" d="M733.3,100v400c0,55.1-44.9,100-100,100H100c-55.1,0-100-44.9-100-100V100C0,44.8,44.8,0,100,0h533.3c55.2,0,100,44.8,100,100ZM70.2,85.1c5.5-10.9,16.8-18.5,29.8-18.5h533.3c12.9,0,24.3,7.6,29.8,18.5l-296.4,207.5L70.2,85.1ZM66.7,164l261.8,183.2c23,16.1,53.5,16.1,76.5,0l261.8-183.2v336c0,18.3-15.1,33.3-33.3,33.3H100c-18.3,0-33.3-15.1-33.3-33.3V164Z"/>
      </g>
    </g>
  </g>
</svg>