<?xml version="1.0" encoding="UTF-8"?>
<svg id="Ebene_1" xmlns="http://www.w3.org/2000/svg" viewBox="0 0 663.9 666.7">
  <g id="Ebene_1-2" data-name="Ebene_1">
    <path d="M166.7,0C74.6,0,0,74.6,0,166.7v333.3c0,92,74.6,166.7,166.7,166.7h133.3c92,0,166.7-74.6,166.7-166.7,0-18.4-14.9-33.3-33.3-33.3s-33.3,14.9-33.3,33.3c0,55.2-44.8,100-100,100h-133.3c-55.2,0-100-44.8-100-100V166.7c0-55.2,44.8-100,100-100h133.3c55.2,0,100,44.8,100,100,0,18.4,14.9,33.3,33.3,33.3s33.3-14.9,33.3-33.3C466.7,74.6,392,0,300,0h-133.3Z" style="fill: #eee;"/>
    <path d="M266.7,366.7c-18.4,0-33.3-14.9-33.3-33.3s14.9-33.3,33.3-33.3v66.7-.1Z" style="fill: #eee;"/>
    <path d="M266.7,300v66.7h276.1c-3,3.7-5.8,7.2-8.5,10.6-8.2,10.3-15.1,19.4-20,25.9-2.4,3.3-4.4,5.9-5.7,7.7l-1.6,2.1-.4.6-.2.2,27,19.6-27-19.6c-10.8,14.9-7.5,35.7,7.4,46.6,14.9,10.8,35.8,7.5,46.6-7.4h0c0-.1.3-.6.3-.6l1.4-1.9c1.2-1.7,3.1-4.1,5.4-7.2,4.6-6.1,11.2-14.8,19-24.6,15.7-19.8,35.6-43.6,53.8-61.8l23.6-23.6-23.6-23.6c-18.2-18.2-38.1-42-53.8-61.8-7.8-9.8-14.4-18.4-19-24.6-2.3-3.1-4.1-5.5-5.4-7.2l-1.4-1.9-.3-.5h0c-10.8-15-31.7-18.3-46.6-7.5-14.9,10.8-18.2,31.7-7.4,46.6l27-19.6c-18,13.07-27,19.6-27,19.6v.2c.1,0,.6.6.6.6l1.6,2.1c1.3,1.8,3.3,4.4,5.7,7.7,4.9,6.5,11.8,15.6,20,25.9,2.7,3.4,5.5,6.9,8.5,10.6h-276.1v.1Z" style="fill: #eee;"/>
  </g>
</svg>