<?xml version="1.0" encoding="UTF-8"?>
<svg xmlns="http://www.w3.org/2000/svg" version="1.1" viewBox="0 0 7171.1 1089.2">
  <defs>
    <style>
      .cls-1 {
        fill: #fff;
      }
    </style>
  </defs>
  <!-- Generator: Adobe Illustrator 28.6.0, SVG Export Plug-In . SVG Version: 1.2.0 Build 709)  -->
  <g>
    <g id="Ebene_1">
      <g id="Ebene_1-2" data-name="Ebene_1">
        <path class="cls-1" d="M7054.2,234.3h-749.9c-64.6,0-116.9-52.3-116.9-116.9S6239.7.4,6304.3.4h749.9c64.6,0,116.9,52.3,116.9,116.9s-52.3,116.9-116.9,116.9Z"/>
        <path class="cls-1" d="M6304.4,1088.5c-27.3,0-54.8-9.5-77-29-48.6-42.6-53.4-116.5-10.9-165L6965.1,40.8c42.6-48.6,116.5-53.4,165-10.9,48.6,42.6,53.4,116.5,10.9,165l-748.5,853.8c-23.1,26.4-55.5,39.8-87.9,39.8h0Z"/>
        <path class="cls-1" d="M7054.1,1089.2h-749.9c-64.6,0-116.9-52.3-116.9-116.9s52.3-116.9,116.9-116.9h749.9c64.6,0,116.9,52.3,116.9,116.9s-52.3,116.9-116.9,116.9Z"/>
        <path class="cls-1" d="M5852.9,1087.7c-64.6,0-116.9-52.3-116.9-116.9V118.2c0-64.6,52.3-116.9,116.9-116.9s116.9,52.3,116.9,116.9v852.6c0,64.6-52.3,116.9-116.9,116.9Z"/>
        <path class="cls-1" d="M4639.2,1088.5c-64.6,0-116.9-52.3-116.9-116.9V117.4c0-64.6,52.3-116.9,116.9-116.9s116.9,52.3,116.9,116.9v854.1c0,64.6-52.3,116.9-116.9,116.9Z"/>
        <path class="cls-1" d="M5400.9,1089.2c-64.6,0-116.9-52.3-116.9-116.9,0-100.8-25.8-174.8-78.9-226.2-90.9-88.2-237-84.7-238.4-84.7h.7l-10.1-233.6c6.4-.3,65-2.2,141.6,13.8,45.9,9.6,89.7,23.8,129.7,42.3,52,23.9,98.1,55,137.2,92.4,47.7,45.6,84.8,100.8,110.3,163.6,27.7,68.4,41.8,146.6,41.8,232.5s-52.3,116.9-116.9,116.9Z"/>
        <path class="cls-1" d="M4969.2,661.7c-6.8,0-11.1-.1-12.6-.2l10.1-233.6h-.7c1.5,0,147.5,3.4,238.4-84.7,53.1-51.5,78.9-125.5,78.9-226.2S5335.7,0,5400.3,0s116.9,52.3,116.9,116.9-14.1,164.1-41.8,232.5c-25.5,62.9-62.6,118-110.3,163.6-39,37.4-85.2,68.5-137.2,92.4-40.1,18.5-83.8,32.7-129.7,42.3-58.7,12.3-106.8,14-129,14h0Z"/>
        <circle class="cls-1" cx="4958.1" cy="545.4" r="117.3"/>
        <path class="cls-1" d="M3491.6,1088.5c-64.6,0-116.9-52.3-116.9-116.9v-385.6c0-64.6,52.3-116.9,116.9-116.9s116.9,52.3,116.9,116.9v385.6c0,64.6-52.3,116.9-116.9,116.9Z"/>
        <path class="cls-1" d="M3491.6,815.3c-64.6,0-116.9-52.3-116.9-116.9v-153.5c0-167.6,82.4-297.3,131.5-359.7l1.3-1.6c17.4-22.1,53.6-68.2,116.4-108.8C3700.1,25.5,3789.9.5,3890.8.5s120.4,9.5,174.6,28.3c44.5,15.4,85.9,37.1,123,64.3,63.4,46.5,94.2,94.8,99.7,104,33.3,55.3,15.3,127.2-40,160.4-54.7,32.9-125.5,15.8-159.3-38.1-4.2-6.2-60.8-85.2-198.1-85.2s-175.5,63.3-199.4,93.7l-1.3,1.7c-30.4,38.6-81.5,118-81.5,215.1v153.5c0,64.6-52.3,116.9-116.9,116.9h0ZM4089,319.8h0ZM4087.8,317.7h0ZM4087.7,317.7h0q0,0,0,0Z"/>
        <path class="cls-1" d="M2615.5,1087.7c-73.2,0-144.2-14.4-211.2-42.7-64.6-27.3-122.6-66.4-172.4-116.2-49.8-49.8-88.9-107.8-116.2-172.4-28.3-66.9-42.7-138-42.7-211.2s14.4-144.2,42.7-211.2c27.3-64.6,66.4-122.6,116.2-172.4,49.8-49.8,107.8-88.9,172.4-116.2,66.9-28.3,138-42.7,211.2-42.7s144.2,14.4,211.2,42.7c64.6,27.3,122.6,66.4,172.4,116.2,49.8,49.8,88.9,107.8,116.2,172.4,28.3,66.9,42.7,138,42.7,211.2s-14.4,144.2-42.7,211.2c-27.3,64.6-66.4,122.6-116.2,172.4-49.8,49.8-107.8,88.9-172.4,116.2-66.9,28.3-138,42.7-211.2,42.7ZM2615.5,236.6c-170.2,0-308.7,138.4-308.7,308.7s138.4,308.7,308.7,308.7,308.7-138.4,308.7-308.7-138.4-308.7-308.7-308.7Z"/>
        <g>
          <path class="cls-1" d="M510.8,1087.6c-97.6,0-184.7-19.6-258.8-58.3-64.9-33.9-119.2-81.8-161.4-142.3C23.8,791.1,0,679.3,0,606.7V121.9C0,57.3,52.3,5,116.9,5s116.9,52.3,116.9,116.9v484.8c0,26.6,10.2,91.5,48.7,146.8,47,67.5,121.7,100.4,228.3,100.4s116.9,52.3,116.9,116.9-52.3,116.9-116.9,116.9h0Z"/>
          <path class="cls-1" d="M534.6,1087.6c-64.6,0-116.9-52.3-116.9-116.9s52.3-116.9,116.9-116.9c106.6,0,181.3-32.8,228.3-100.4,38.5-55.3,48.7-120.2,48.7-146.8V121.9c0-64.6,52.3-116.9,116.9-116.9s116.9,52.3,116.9,116.9v484.8c0,72.6-23.8,184.5-90.6,280.4-42.1,60.5-96.4,108.4-161.4,142.3-74.2,38.6-161.3,58.3-258.8,58.3h0Z"/>
          <path class="cls-1" d="M1322.4,1087.6c-97.6,0-184.7-19.6-258.8-58.3-64.9-33.9-119.2-81.8-161.4-142.3-66.8-95.9-90.6-207.8-90.6-280.4V121.9c0-64.6,52.3-116.9,116.9-116.9s116.9,52.3,116.9,116.9v484.8c0,26.6,10.2,91.5,48.7,146.8,47,67.5,121.7,100.4,228.3,100.4s116.9,52.3,116.9,116.9-52.3,116.9-116.9,116.9h0Z"/>
          <path class="cls-1" d="M1346.3,1087.6c-64.6,0-116.9-52.3-116.9-116.9s52.3-116.9,116.9-116.9c106.6,0,181.3-32.8,228.3-100.4,38.5-55.3,48.7-120.2,48.7-146.8V121.9c0-64.6,52.3-116.9,116.9-116.9s116.9,52.3,116.9,116.9v484.8c0,72.6-23.8,184.5-90.6,280.4-42.1,60.5-96.4,108.4-161.4,142.3-74.2,38.6-161.3,58.3-258.8,58.3h0Z"/>
        </g>
      </g>
    </g>
  </g>
</svg>