<?xml version="1.0" encoding="UTF-8"?>
<svg xmlns="http://www.w3.org/2000/svg" version="1.1" viewBox="0 0 660.8 666.5">
  <defs>
    <style>
      .cls-1 {
        fill: #eee;
      }
    </style>
  </defs>
  <!-- Generator: Adobe Illustrator 28.6.0, SVG Export Plug-In . SVG Version: 1.2.0 Build 709)  -->
  <g>
    <g id="Ebene_1">
      <g id="Ebene_1-2" data-name="Ebene_1">
        <path class="cls-1" d="M33.3,666.5c-8.4,0-16.6-3.2-22.9-9.1-7.9-7.4-11.6-18.2-10.1-28.9l1.6-11.1c5.9-41.3,8.9-62,16.3-83.3,6.6-18.9,15.6-37,26.8-53.6,12.6-18.7,27.4-33.5,56.9-63L490.1,29.2c39-39,102.4-39,141.4,0,39,39,39,102.4,0,141.4l-395.4,395.4c-26.7,26.7-40.2,40.2-57,51.9-14.9,10.4-31.1,19.1-48.1,25.8-19.1,7.5-37.7,11.3-74.8,18.8l-16.3,3.3c-2.2.4-4.4.7-6.6.7ZM450,163.7L149,464.7c-26.4,26.4-39.7,39.7-48.7,53.1-8,11.9-14.4,24.7-19.1,38.3-3.2,9.3-5.5,19.8-7.9,35,14.7-3.2,24.6-5.8,33.4-9.2,12.1-4.8,23.7-11,34.4-18.4,12.1-8.4,24.1-20.4,48.1-44.4L497.1,210.8l-47.1-47.1h0ZM497.1,116.5l47.1,47.1,40.1-40.1c13-13,13-34.1,0-47.1s-34.1-13-47.1,0c0,0-40.1,40.1-40.1,40.1Z"/>
      </g>
    </g>
  </g>
</svg>